Coordinates
version=1
nRows=26
nColumns=24
inDegrees=yes

Units are S.I. units (second, meters, Newtons, ...)
Angles are in degrees.

endheader
time	pelvis_tilt	pelvis_list	pelvis_rotation	pelvis_tx	pelvis_ty	pelvis_tz	hip_flexion_r	hip_adduction_r	hip_rotation_r	knee_angle_r	ankle_angle_r	subtalar_angle_r	mtp_angle_r	hip_flexion_l	hip_adduction_l	hip_rotation_l	knee_angle_l	ankle_angle_l	subtalar_angle_l	mtp_angle_l	lumbar_extension	lumbar_bending	lumbar_rotation
      1.25916667	     -6.05833562	      1.55548330	     -4.91506605	      0.30468840	      1.07095105	      0.25236711	     25.54751098	     -4.36421129	     -6.29551127	    -67.79413639	      2.48289480	     -2.45361828	      6.50722310	     14.81389879	      3.39013120	      0.13749203	    -18.31947123	     11.91680104	      4.45745692	     -2.91266028	     -8.77751429	     -2.87039086	     -1.17766999
      1.26333333	     -6.02863621	      1.47019697	     -4.79478631	      0.30954760	      1.07182540	      0.25211165	     25.90949512	     -4.26622076	     -6.48380273	    -67.15812598	      2.77823071	     -2.16941872	      6.52295864	     14.26932982	      3.34850720	      0.22674400	    -17.85037927	     11.91489297	      4.54468743	     -2.90656845	     -8.85016478	     -2.73927238	     -1.38700268
      1.26750000	     -6.02307197	      1.36909221	     -4.66847419	      0.31441550	      1.07264798	      0.25186738	     26.27632222	     -4.14371312	     -6.67338748	    -66.46294385	      3.05690248	     -1.89853271	      6.53841195	     13.75627944	      3.28519616	      0.31596670	    -17.39546861	     11.90002883	      4.64165118	     -2.90216629	     -8.89872108	     -2.60141501	     -1.54353337
      1.27166667	     -6.01144816	      1.29743648	     -4.54649217	      0.31927943	      1.07337897	      0.25162084	     26.64004659	     -4.05718722	     -6.85281331	    -65.75641991	      3.34637905	     -1.63264140	      6.55439235	     13.23719552	      3.25159976	      0.38896322	    -16.93244092	     11.88448060	      4.74191341	     -2.89821116	     -8.94097858	     -2.46679997	     -1.70499875
      1.27583333	     -5.99352072	      1.24162700	     -4.42491365	      0.32411916	      1.07407300	      0.25139546	     26.99092047	     -3.98299897	     -7.01505997	    -65.01531730	      3.62798631	     -1.35891704	      6.58229945	     12.70642109	      3.23944089	      0.51302388	    -16.45480815	     11.88625745	      4.76738213	     -2.88698961	     -8.99902817	     -2.37236128	     -2.00649890
      1.28000000	     -5.99479995	      1.15659842	     -4.30190583	      0.32897624	      1.07470257	      0.25116409	     27.33921699	     -3.87457568	     -7.18498011	    -64.21739946	      3.88128913	     -1.10996702	      6.60387460	     12.20883516	      3.18769231	      0.59865906	    -16.01075233	     11.91362450	      4.84550624	     -2.87782159	     -9.02400355	     -2.23538429	     -2.16212824
      1.28416667	     -6.01046648	      1.08842900	     -4.18372616	      0.33381575	      1.07523686	      0.25098038	     27.69955781	     -3.77298076	     -7.33139850	    -63.39264659	      4.13488377	     -0.89593685	      6.62074303	     11.73477368	      3.14619354	      0.66847056	    -15.57774470	     11.90200512	      4.93608820	     -2.87202130	     -9.03834439	     -2.13316622	     -2.30019834
      1.28833333	     -6.01646143	      1.02923505	     -4.06726657	      0.33865879	      1.07575020	      0.25079537	     28.03787254	     -3.68140569	     -7.47020978	    -62.53152897	      4.38017597	     -0.68026097	      6.63783647	     11.24568816	      3.11610010	      0.75239792	    -15.13044900	     11.90505333	      5.00587167	     -2.86541520	     -9.06067247	     -2.03304674	     -2.47252848
      1.29250000	     -6.01596624	      0.99014768	     -3.95523376	      0.34348641	      1.07617902	      0.25061320	     28.36953689	     -3.61290066	     -7.59652378	    -61.65567476	      4.61271723	     -0.48159177	      6.66105758	     10.74904486	      3.11027239	      0.86037221	    -14.68111647	     11.93623233	      5.03104759	     -2.85278043	     -9.08817411	     -1.94024307	     -2.71476513
      1.29666667	     -6.05643841	      0.93831815	     -3.84939025	      0.34831325	      1.07650739	      0.25048332	     28.72665715	     -3.51143433	     -7.70092965	    -60.72748369	      4.82755778	     -0.34149172	      6.67513430	     10.31280167	      3.07697180	      0.92198862	    -14.26574368	     11.92952623	      5.10801562	     -2.84591555	     -9.07040624	     -1.85661440	     -2.82979905
      1.30083333	     -6.06848160	      0.91478858	     -3.74483242	      0.35312725	      1.07679576	      0.25033866	     29.05296866	     -3.44778092	     -7.79515096	    -59.78751529	      5.04022132	     -0.18220229	      6.69732048	      9.83965864	      3.08183264	      1.02675549	    -13.83465481	     11.96755307	      5.12598165	     -2.83106864	     -9.08255217	     -1.78883580	     -3.05414244
      1.30500000	     -6.13238290	      0.88197062	     -3.65322553	      0.35794625	      1.07695012	      0.25025771	     29.41991689	     -3.35256365	     -7.86223472	    -58.80240908	      5.23218872	     -0.09269046	      6.70832388	      9.43822979	      3.06121975	      1.07259903	    -13.43795691	     11.97609858	      5.20380189	     -2.82377723	     -9.03311977	     -1.72718606	     -3.14581282
      1.30916667	     -6.16619615	      0.86951697	     -3.55524009	      0.36275431	      1.07708958	      0.25015388	     29.74692580	     -3.28924247	     -7.92816244	    -57.79477170	      5.41368848	      0.01862482	      6.72739179	      8.99929237	      3.07127818	      1.17461339	    -13.02841523	     12.02270516	      5.21319848	     -2.80727924	     -9.01526180	     -1.67390620	     -3.35860080
      1.31333333	     -6.22881471	      0.86466169	     -3.48615536	      0.36756667	      1.07711855	      0.25012935	     30.10045144	     -3.20772504	     -7.94501403	    -56.76090608	      5.58639666	      0.05577153	      6.73439022	      8.59873944	      3.07489609	      1.20150414	    -12.63458136	     12.05485887	      5.30122936	     -2.80088766	     -8.96663596	     -1.64477313	     -3.42491531
      1.31750000	     -6.24728829	      0.84866234	     -3.39549880	      0.37234059	      1.07719335	      0.25006800	     30.38065040	     -3.12782596	     -7.97841896	    -55.67157642	      5.73255059	      0.10915714	      6.75121739	      8.15783200	      3.07691991	      1.30231519	    -12.25517887	     12.10057546	      5.29742622	     -2.78305037	     -8.97563404	     -1.59924047	     -3.62182804
      1.32166667	     -6.32151516	      0.86883085	     -3.34127083	      0.37714058	      1.07707357	      0.25009319	     30.72881851	     -3.05808548	     -7.94937248	    -54.58258712	      5.89660867	      0.12293595	      6.75654188	      7.77914351	      3.10258289	      1.32234213	    -11.88009266	     12.15189281	      5.37928137	     -2.77662112	     -8.91282285	     -1.60557360	     -3.68010122
      1.32583333	     -6.38245836	      0.86044330	     -3.27142560	      0.38191587	      1.07695583	      0.25007895	     31.03118269	     -2.96285255	     -7.92700710	    -53.42747573	      6.02648922	      0.12145542	      6.76498627	      7.39991814	      3.10300014	      1.38363136	    -11.53789490	     12.19124542	      5.40448912	     -2.76542388	     -8.87243630	     -1.56394522	     -3.79821397
      1.33000000	     -6.44119047	      0.88731309	     -3.21082568	      0.38668219	      1.07676817	      0.25010968	     31.33185640	     -2.89796908	     -7.87808102	    -52.26274737	      6.13267290	      0.07517286	      6.78147339	      7.00685447	      3.14174453	      1.48269753	    -11.16607198	     12.25016832	      5.37853763	     -2.74163582	     -8.83547532	     -1.57127833	     -3.97129965
      1.33416667	     -6.52744712	      0.92229903	     -3.17101061	      0.39146066	      1.07646332	      0.25017752	     31.65247281	     -2.82662724	     -7.79312417	    -51.07119705	      6.27267359	      0.05495229	      6.78835804	      6.65905205	      3.17935736	      1.50187830	    -10.83081430	     12.30777701	      5.42882234	     -2.73111926	     -8.75591166	     -1.59295547	     -4.02713415
      1.33833333	     -6.59803951	      0.95120427	     -3.13260735	      0.39623354	      1.07615643	      0.25025652	     31.93529633	     -2.74491789	     -7.69425774	    -49.83376692	      6.37394812	     -0.01171256	      6.79441837	      6.29448129	      3.21146396	      1.54100031	    -10.49890404	     12.38020338	      5.46042786	     -2.71914863	     -8.70143236	     -1.60507040	     -4.10086441
      1.34250000	     -6.68207218	      0.99038572	     -3.10197732	      0.40100023	      1.07576294	      0.25035406	     32.22298647	     -2.66726091	     -7.57556838	    -48.57126739	      6.46831689	     -0.09666056	      6.79997758	      5.94625995	      3.25275561	      1.57816559	    -10.16872906	     12.45751499	      5.48506504	     -2.70729442	     -8.63839807	     -1.63080534	     -4.17386029
      1.34666667	     -6.75461961	      1.04256860	     -3.07743132	      0.40576079	      1.07533511	      0.25048356	     32.48472408	     -2.59566254	     -7.43014734	    -47.27656943	      6.54703176	     -0.20384484	      6.80627476	      5.58944462	      3.30692493	      1.62039677	     -9.84878367	     12.53749016	      5.49350767	     -2.69393024	     -8.58311653	     -1.67383273	     -4.24673354
      1.35083333	     -6.84920190	      1.10301781	     -3.05796469	      0.41051003	      1.07481551	      0.25061434	     32.75752999	     -2.52740320	     -7.26373265	    -45.95151578	      6.62273633	     -0.31704595	      6.81240280	      5.26192479	      3.36921992	      1.66455794	     -9.53886739	     12.62242567	      5.49919885	     -2.68081359	     -8.50140472	     -1.72911886	     -4.30699853
      1.35500000	     -6.93844517	      1.17498186	     -3.04619945	      0.41526831	      1.07424591	      0.25077842	     33.01267056	     -2.46504031	     -7.07794830	    -44.60196519	      6.68028042	     -0.45609846	      6.82010673	      4.92618127	      3.44228456	      1.70916858	     -9.22676034	     12.71306478	      5.48868961	     -2.66584015	     -8.43052665	     -1.80182722	     -4.36376711
      1.35916667	     -7.02330344	      1.24877031	     -3.03941246	      0.42001940	      1.07365502	      0.25095010	     33.24360756	     -2.39974125	     -6.87105123	    -43.21134319	      6.73059242	     -0.59729985	      6.82846399	      4.58955956	      3.51733976	      1.75633885	     -8.92280611	     12.80179530	      5.47731658	     -2.65128076	     -8.36402443	     -1.87447175	     -4.40729355
      1.36333333	     -7.11019899	      1.33346238	     -3.03400917	      0.42477113	      1.07299932	      0.25112803	     33.46422535	     -2.34338205	     -6.64685129	    -41.79649813	      6.76071485	     -0.76685741	      6.84013913	      4.25562027	      3.60434719	      1.81541319	     -8.62121648	     12.90201058	      5.45563914	     -2.63424644	     -8.29077525	     -1.95806585	     -4.43945267
